<svg width="56" height="56" viewBox="0 0 56 56" fill="none" xmlns="http://www.w3.org/2000/svg">
<rect width="56" height="56" rx="28" fill="#87E464"/>
<path d="M27.0533 28L31.7733 23.28C32.0217 23.0302 32.1611 22.6923 32.1611 22.34C32.1611 21.9878 32.0217 21.6498 31.7733 21.4C31.6494 21.275 31.5019 21.1758 31.3394 21.1082C31.177 21.0405 31.0027 21.0056 30.8267 21.0056C30.6507 21.0056 30.4764 21.0405 30.3139 21.1082C30.1514 21.1758 30.004 21.275 29.88 21.4L24.2267 27.0533C24.1017 27.1773 24.0025 27.3248 23.9348 27.4872C23.8671 27.6497 23.8323 27.824 23.8323 28C23.8323 28.176 23.8671 28.3503 23.9348 28.5128C24.0025 28.6753 24.1017 28.8227 24.2267 28.9467L29.88 34.6667C30.0046 34.7903 30.1523 34.888 30.3148 34.9544C30.4772 35.0207 30.6512 35.0544 30.8267 35.0533C31.0021 35.0544 31.1761 35.0207 31.3385 34.9544C31.501 34.888 31.6488 34.7903 31.7733 34.6667C32.0217 34.4169 32.1611 34.0789 32.1611 33.7267C32.1611 33.3744 32.0217 33.0365 31.7733 32.7867L27.0533 28Z" fill="#081C00"/>
</svg>
