<svg width="56" height="56" viewBox="0 0 56 56" fill="none" xmlns="http://www.w3.org/2000/svg">
<rect width="56" height="56" rx="28" fill="#87E464"/>
<path d="M31.7733 27.0533L26.12 21.4C25.996 21.275 25.8486 21.1758 25.6861 21.1082C25.5236 21.0405 25.3493 21.0056 25.1733 21.0056C24.9973 21.0056 24.823 21.0405 24.6605 21.1082C24.4981 21.1758 24.3506 21.275 24.2267 21.4C23.9783 21.6498 23.8389 21.9878 23.8389 22.34C23.8389 22.6923 23.9783 23.0302 24.2267 23.28L28.9467 28L24.2267 32.72C23.9783 32.9698 23.8389 33.3078 23.8389 33.66C23.8389 34.0123 23.9783 34.3502 24.2267 34.6C24.3512 34.7236 24.499 34.8214 24.6614 34.8877C24.8239 34.9541 24.9978 34.9877 25.1733 34.9867C25.3488 34.9877 25.5227 34.9541 25.6852 34.8877C25.8476 34.8214 25.9954 34.7236 26.12 34.6L31.7733 28.9467C31.8983 28.8227 31.9975 28.6753 32.0652 28.5128C32.1329 28.3503 32.1677 28.176 32.1677 28C32.1677 27.824 32.1329 27.6497 32.0652 27.4872C31.9975 27.3248 31.8983 27.1773 31.7733 27.0533Z" fill="#081C00"/>
</svg>
