<svg width="25" height="24" viewBox="0 0 25 24" fill="none" xmlns="http://www.w3.org/2000/svg">
<path d="M15.33 11.2899L11.09 7.04995C10.997 6.95622 10.8864 6.88183 10.7646 6.83106C10.6427 6.78029 10.512 6.75415 10.38 6.75415C10.248 6.75415 10.1173 6.78029 9.99543 6.83106C9.87357 6.88183 9.76297 6.95622 9.67 7.04995C9.48375 7.23731 9.37921 7.49076 9.37921 7.75495C9.37921 8.01913 9.48375 8.27259 9.67 8.45995L13.21 11.9999L9.67 15.5399C9.48375 15.7273 9.37921 15.9808 9.37921 16.2449C9.37921 16.5091 9.48375 16.7626 9.67 16.9499C9.76344 17.0426 9.87426 17.116 9.9961 17.1657C10.1179 17.2155 10.2484 17.2407 10.38 17.2399C10.5116 17.2407 10.6421 17.2155 10.7639 17.1657C10.8857 17.116 10.9966 17.0426 11.09 16.9499L15.33 12.7099C15.4237 12.617 15.4981 12.5064 15.5489 12.3845C15.5997 12.2627 15.6258 12.132 15.6258 11.9999C15.6258 11.8679 15.5997 11.7372 15.5489 11.6154C15.4981 11.4935 15.4237 11.3829 15.33 11.2899Z" fill="black"/>
</svg>
