<svg width="96" height="97" viewBox="0 0 96 97" fill="none" xmlns="http://www.w3.org/2000/svg">
<path d="M19.16 42.4996H11.16C10.0991 42.4996 9.08172 42.921 8.33157 43.6712C7.58143 44.4213 7.16 45.4387 7.16 46.4996C7.16 47.5605 7.58143 48.5779 8.33157 49.328C9.08172 50.0782 10.0991 50.4996 11.16 50.4996H19.16C20.2209 50.4996 21.2383 50.0782 21.9884 49.328C22.7386 48.5779 23.16 47.5605 23.16 46.4996C23.16 45.4387 22.7386 44.4213 21.9884 43.6712C21.2383 42.921 20.2209 42.4996 19.16 42.4996ZM86.28 31.1396V30.8996C85.1339 29.4987 83.6859 28.3753 82.0442 27.6133C80.4025 26.8513 78.6097 26.4706 76.8 26.4996H45.08C42.1408 26.4732 39.2942 27.5264 37.08 29.4596C35.012 31.2817 33.6524 33.7744 33.24 36.4996L29.72 56.4996C29.4173 58.2268 29.4968 59.9993 29.9529 61.6924C30.409 63.3856 31.2307 64.9582 32.36 66.2996C33.4834 67.6365 34.8851 68.7122 36.4672 69.4514C38.0493 70.1906 39.7737 70.5757 41.52 70.5796H73.28C76.133 70.6227 78.908 69.6478 81.1072 67.8299C83.3063 66.0119 84.7857 63.4698 85.28 60.6596L88.8 40.6596C89.0772 38.9848 88.996 37.2702 88.5616 35.6292C88.1272 33.9881 87.3495 32.4579 86.28 31.1396ZM75.32 34.4996L61.72 45.5396C60.9159 46.1877 59.8923 46.4996 58.8634 46.4101C57.8346 46.3207 56.8802 45.8367 56.2 45.0596L46.88 34.4996H75.32ZM77.24 59.1796C77.0781 60.1188 76.5862 60.9693 75.8528 61.5779C75.1195 62.1866 74.1929 62.5134 73.24 62.4996H41.52C40.9391 62.4947 40.3663 62.3634 39.8413 62.1147C39.3163 61.866 38.8518 61.506 38.48 61.0596C38.1073 60.6156 37.8356 60.0958 37.6836 59.5364C37.5317 58.9769 37.5031 58.3911 37.6 57.8196L40.8 39.6996L50.2 50.3396C52.246 52.6651 55.112 54.1093 58.1984 54.3702C61.2848 54.6312 64.3526 53.6886 66.76 51.7396L80.52 40.4996L77.24 59.1796ZM23.16 26.4996H11.16C10.0991 26.4996 9.08172 26.921 8.33157 27.6712C7.58143 28.4213 7.16 29.4387 7.16 30.4996C7.16 31.5605 7.58143 32.5779 8.33157 33.328C9.08172 34.0782 10.0991 34.4996 11.16 34.4996H23.16C24.2209 34.4996 25.2383 34.0782 25.9884 33.328C26.7386 32.5779 27.16 31.5605 27.16 30.4996C27.16 29.4387 26.7386 28.4213 25.9884 27.6712C25.2383 26.921 24.2209 26.4996 23.16 26.4996Z" fill="#081C00"/>
</svg>
