<svg width="362" height="362" viewBox="0 0 362 362" fill="none" xmlns="http://www.w3.org/2000/svg">
<path d="M156.288 253.154C158.205 251.477 165.87 244.051 161.558 240.458C157.246 236.865 154.372 238.781 152.216 240.937C152.513 242.055 152.498 244.722 150.06 246.447C148.791 247.344 146.668 247.702 144.311 247.485C143.991 249.135 143.257 253.058 142.873 255.549C142.394 258.664 140.238 260.58 137.843 260.58C136.809 260.58 136.286 260.068 136.049 259.459C135.847 258.94 135.853 258.349 135.927 257.945C135.549 254.545 132.341 252.783 129.121 251.015C128.258 250.541 127.395 250.067 126.584 249.561C124.428 247.245 120.691 242.279 122.991 240.937C123.886 240.415 124.943 239.986 126.105 239.78C128.676 239.323 131.759 239.958 134.729 243.093C137.245 245.749 141.008 247.181 144.311 247.485C146.668 247.702 148.791 247.344 150.06 246.447C152.498 244.722 152.513 242.055 152.216 240.937C150.808 239.681 148.937 238.073 146.87 236.386C141.317 231.853 134.348 226.744 131.136 226.325C126.016 225.657 122.551 228.506 120.356 230.834C120.189 231.012 120.029 231.186 119.877 231.355C119.011 232.317 117.488 233.279 115.572 234.49C112.718 236.293 108.991 238.648 105.265 242.374C99.0365 248.603 93.5269 256.029 90.1732 263.934L90.0134 264.31C86.7909 271.901 85.9808 273.809 93.2873 277.109L93.3405 277.133C100.738 280.474 106.014 282.856 118.679 282.139C120.953 282.01 122.973 281.943 124.801 281.882C133.176 281.604 137.496 281.46 143.592 276.15C145.598 274.404 147.209 273.234 148.494 272.3C151.968 269.778 153.06 268.985 153.108 263.215C152.284 257.854 154.75 254.5 156.288 253.154Z" fill="#3A963D"/>
<circle cx="186" cy="186" r="176" fill="#63CB3C"/>
<g filter="url(#filter0_i_37_2559)">
<circle cx="176" cy="176" r="176" fill="#ACFF8D"/>
</g>
<g filter="url(#filter1_i_37_2559)">
<circle cx="176" cy="176" r="149" fill="#87E464"/>
</g>
<path fill-rule="evenodd" clip-rule="evenodd" d="M171 324.918C250.976 322.281 315 256.617 315 176C315 95.3828 250.976 29.7193 171 27.0823C172.66 27.0276 174.327 27 176 27C258.29 27 325 93.7096 325 176C325 258.29 258.29 325 176 325C174.327 325 172.66 324.972 171 324.918Z" fill="#40AA18"/>
<path fill-rule="evenodd" clip-rule="evenodd" d="M181 324.918C101.024 322.281 37 256.617 37 176C37 95.3828 101.024 29.7193 181 27.0823C179.34 27.0276 177.673 27 176 27C93.7096 27 27 93.7096 27 176C27 258.29 93.7096 325 176 325C177.673 325 179.34 324.972 181 324.918Z" fill="#BFFFA7"/>
<path fill-rule="evenodd" clip-rule="evenodd" d="M139.482 232.842C139.865 230.351 140.6 226.428 140.919 224.778C137.616 224.474 133.854 223.042 131.337 220.386C128.368 217.251 125.284 216.616 122.714 217.072C125.908 221.371 133.733 230.542 139.482 232.842Z" fill="#3A963D"/>
<path d="M136.128 89.1141C132.87 91.6054 128.862 100.373 127.265 104.445C119.36 108.996 114.17 114.666 112.653 118.578C104.987 122.411 103.789 125.046 104.029 126.723C104.221 128.064 105.386 127.921 105.945 127.681C106.025 129.039 106.185 133.286 106.185 139.419C106.185 145.551 110.177 150.278 112.174 151.875C108.82 154.191 105.227 158.104 105.227 161.936C103.31 163.853 101.394 167.685 100.915 170.56C100.532 172.86 105.546 178.066 108.101 180.381C107.462 181.499 106.233 184.166 106.424 185.891C106.616 187.616 109.858 191.401 111.455 193.077C111.375 193.477 111.167 195.185 110.976 198.826C110.784 202.468 114.888 206.544 116.965 208.127C117.923 206.304 120.989 202.803 125.588 203.378C130.187 203.953 142.995 213.519 148.824 218.23C150.98 216.074 153.855 214.157 158.167 217.751C162.478 221.344 154.813 228.77 152.897 230.447C151.358 231.793 148.893 235.147 149.716 240.508C149.919 241.824 150.319 243.261 150.98 244.819C154.334 252.724 165.593 252.964 182.6 252.724C199.608 252.485 197.452 261.348 230.51 252.006C263.567 242.663 269.316 237.154 268.837 207.69C268.358 178.225 260.213 160.978 258.297 154.271C256.381 147.563 239.133 117.381 234.822 111.631C230.51 105.882 222.844 95.8214 220.449 93.1864C218.053 90.5514 218.053 80.9695 195.536 79.5322C187.863 78.1886 172.519 78.5561 172.519 90.775C171.8 90.775 163.197 82.4068 161.281 81.4486C159.364 80.4905 154.094 80.73 148.345 81.4486C142.596 82.1673 140.201 86 136.128 89.1141Z" fill="#3A963D"/>
<path fill-rule="evenodd" clip-rule="evenodd" d="M105.945 185.838C106.137 187.562 109.379 191.347 110.976 193.024C114.721 197.576 121.755 198.773 132.056 198.055C134.76 197.866 138.008 198.057 141.744 198.277C152.244 198.894 166.598 199.738 183.558 193.024C206.555 183.921 216.855 174.819 214.7 170.028C212.728 165.646 207.349 167.476 192.333 172.586C192.331 172.586 192.33 172.587 192.328 172.587C190.928 173.064 189.443 173.569 187.87 174.1C169.425 180.328 123.193 181.047 113.85 177.933C106.377 175.441 104.668 166.195 104.748 161.883C102.831 163.799 100.915 167.632 100.436 170.507C100.053 172.806 105.067 178.013 107.622 180.328C106.983 181.446 105.754 184.113 105.945 185.838Z" fill="#156613"/>
<path d="M151.438 144.396C151.598 144.716 153.115 145.786 157.906 147.51C163.895 149.666 167.967 148.229 174.195 147.51C180.424 146.792 188.568 142.959 190.245 142.001C191.922 141.043 196.473 136.97 200.546 135.533C202.078 134.992 203.6 134.186 204.907 133.377C198.24 129.736 173.35 129.728 161.739 130.18C155.019 135.681 154.716 133.861 151.438 144.396Z" fill="#FAFDFD"/>
<path d="M106.643 139.366C108.24 141.522 112.488 145.977 116.704 146.552C116.897 146.578 117.102 146.607 117.318 146.636L117.32 146.637C122.989 147.42 136.185 149.242 144.492 144.396C144.492 139.615 141.705 135.041 137.545 131.655C120.681 128.744 109.917 135.582 106.643 139.366Z" fill="#FAFDFD"/>
<path d="M120.058 145.354C114.069 141.282 119.818 132.898 120.537 132.179C121.974 131.7 134.91 128.586 137.305 132.898C139.222 136.347 139.062 143.677 138.743 145.833C134.511 147.031 124.849 148.612 120.058 145.354Z" fill="black"/>
<path d="M169.644 130.982C166.003 137.497 168.526 144.476 170.363 146.792C182.819 146.792 190.085 141.522 192.161 138.887C192.161 134.862 189.127 131.94 187.61 130.982C181.542 131.061 169.644 130.598 169.644 130.982Z" fill="black"/>
<path fill-rule="evenodd" clip-rule="evenodd" d="M184.735 135.533C185.265 135.533 185.694 135.104 185.694 134.575C185.694 134.046 185.265 133.617 184.735 133.617C184.206 133.617 183.777 134.046 183.777 134.575C183.777 135.104 184.206 135.533 184.735 135.533ZM133.952 136.012C133.952 136.806 133.308 137.449 132.514 137.449C131.72 137.449 131.077 136.806 131.077 136.012C131.077 135.218 131.72 134.575 132.514 134.575C133.308 134.575 133.952 135.218 133.952 136.012ZM123.412 141.761C124.734 141.761 125.807 140.689 125.807 139.366C125.807 138.043 124.734 136.97 123.412 136.97C122.089 136.97 121.016 138.043 121.016 139.366C121.016 140.689 122.089 141.761 123.412 141.761ZM132.514 143.678C133.308 143.678 133.952 143.034 133.952 142.24C133.952 141.447 133.308 140.803 132.514 140.803C131.72 140.803 131.077 141.447 131.077 142.24C131.077 143.034 131.72 143.678 132.514 143.678ZM174.675 141.761C176.527 141.761 178.028 140.26 178.028 138.408C178.028 136.555 176.527 135.054 174.675 135.054C172.822 135.054 171.321 136.555 171.321 138.408C171.321 140.26 172.822 141.761 174.675 141.761ZM185.215 139.845C185.215 140.639 184.571 141.282 183.777 141.282C182.983 141.282 182.34 140.639 182.34 139.845C182.34 139.051 182.983 138.408 183.777 138.408C184.571 138.408 185.215 139.051 185.215 139.845Z" fill="white"/>
<path d="M127.615 103.986C129.212 99.914 133.22 91.1466 136.478 88.6553C140.55 85.5412 142.946 81.7084 148.695 80.9898C154.444 80.2711 159.714 80.0316 161.63 80.9898C163.547 81.948 171.691 88.6553 172.41 88.6553M127.615 103.986C119.71 108.538 114.52 114.207 113.002 118.119M127.615 103.986C134.562 100.633 150.995 95.6979 161.151 102.788M170.494 97.0394C171.452 90.5716 177.872 77.9236 195.886 79.0734C218.403 80.5107 218.403 90.0925 220.799 92.7275C223.194 95.3625 230.859 105.423 235.171 111.173C239.483 116.922 256.731 147.105 258.647 153.812C260.563 160.519 268.708 177.767 269.187 207.231C269.666 236.695 263.917 242.205 230.859 251.547C197.802 260.889 199.958 252.026 182.95 252.266C165.942 252.505 154.684 252.266 151.33 244.361C150.669 242.802 150.268 241.365 150.066 240.049M149.174 217.771C151.33 215.615 154.205 213.699 158.516 217.292C162.828 220.885 155.163 228.311 153.246 229.988C151.708 231.334 149.243 234.688 150.066 240.049M149.174 217.771C149.471 218.889 149.457 221.556 147.018 223.28C145.749 224.178 143.626 224.536 141.269 224.319M149.174 217.771C147.766 216.515 145.895 214.907 143.828 213.219M150.066 240.049C150 247.954 147.976 246.516 140.55 252.984C133.124 259.452 128.333 258.254 115.637 258.973C102.942 259.692 97.6715 257.296 90.2456 253.942C82.8196 250.589 83.7778 248.672 87.1315 240.767C90.4851 232.862 95.9947 225.436 102.223 219.208C108.451 212.98 114.679 210.584 116.835 208.189C116.988 208.02 117.147 207.845 117.314 207.668M113.242 218.25C115.398 220.166 120.476 224.478 123.543 226.395M123.543 226.395C127.375 228.79 132.406 230.467 132.885 234.779M123.543 226.395C121.387 224.079 117.65 219.112 119.949 217.771C120.844 217.249 121.901 216.82 123.063 216.614M132.885 234.779C133.364 239.091 132.645 240.528 129.771 242.444C126.896 244.361 122.824 245.319 121.866 243.881M132.885 234.779C132.725 235.657 132.885 237.414 134.801 237.414C137.197 237.414 139.353 235.497 139.832 232.383M121.866 243.881C120.908 242.444 118.991 235.258 112.284 231.904M121.866 243.881C121.866 245.159 121.243 247.906 118.752 248.672C115.637 249.631 111.805 249.631 111.086 248.672M111.086 248.672C110.511 247.906 104.139 240.847 101.025 237.414M111.086 248.672C111.006 249.551 110.367 251.403 108.451 251.787C106.056 252.266 100.546 252.266 94.5574 242.444M143.828 213.219C138.275 208.686 131.306 203.577 128.094 203.159C122.974 202.491 119.509 205.34 117.314 207.668M143.828 213.219C141.857 214.258 138.059 216.813 138.634 218.729C139.209 220.645 140.63 221.923 141.269 222.322M117.314 207.668C115.238 206.085 111.134 202.009 111.326 198.368C111.517 194.726 111.725 193.018 111.805 192.618M111.805 192.618C110.208 190.942 106.966 187.157 106.774 185.432C106.583 183.707 107.812 181.04 108.451 179.922M111.805 192.618C115.55 197.17 122.584 198.368 132.885 197.649C143.185 196.93 161.391 201.721 184.387 192.618C207.384 183.516 217.684 174.413 215.528 169.622C213.373 164.831 207.144 167.466 188.699 173.694C170.254 179.922 124.022 180.641 114.679 177.527C107.205 175.036 105.497 165.789 105.577 161.477M108.451 179.922C105.896 177.607 100.881 172.401 101.265 170.101C101.744 167.227 103.66 163.394 105.577 161.477M108.451 179.922C109.888 181.759 113.386 185.576 115.877 186.151C118.991 186.869 141.269 187.588 149.174 186.869C157.079 186.151 162.589 184.234 167.14 183.755C171.691 183.276 179.117 183.755 183.669 182.797C188.22 181.839 194.209 178.246 197.562 177.527C200.245 176.952 206.026 173.934 208.582 172.497M105.577 161.477C105.577 157.645 109.17 153.732 112.523 151.416M112.523 151.416C110.527 149.819 106.535 145.092 106.535 138.96M112.523 151.416C113.721 151.736 117.075 152.279 120.908 151.896M112.523 151.416C112.523 153.333 114.392 157.022 121.866 156.447M106.535 138.96C106.535 132.828 106.375 128.58 106.295 127.222M106.535 138.96C108.132 141.116 112.38 145.572 116.596 146.146C121.866 146.865 135.759 149.021 144.383 143.99C144.383 139.21 141.596 134.635 137.436 131.249M106.535 138.96C106.774 134.888 107.972 127.222 119.71 125.785C126 125.015 132.633 127.34 137.436 131.249M106.535 138.96C109.809 135.177 120.572 128.338 137.436 131.249M106.295 127.222C105.736 127.462 104.57 127.605 104.379 126.264C104.139 124.587 105.337 121.952 113.002 118.119M106.295 127.222C107.493 125.466 112.284 121.952 121.866 121.952C131.448 121.952 138.474 126.903 140.79 129.378M113.002 118.119C117.953 117.321 129.196 116.634 134.562 120.275M205.947 163.394C209.38 162.675 217.157 162.915 220.798 169.622M208.103 157.405C209.939 157.086 213.995 156.974 215.528 159.082M152.049 121.952C154.125 113.329 163.02 96.0812 181.992 96.0812C205.707 96.0812 200.916 100.153 208.582 105.663M125.938 152.854C127.844 153.605 131.956 154.347 136.478 153.105M141.748 150.698C139.998 151.864 138.208 152.63 136.478 153.105M136.478 153.105C133.763 155.337 128.094 160.615 127.136 163.873M146.779 136.085C146.459 134.169 146.252 129.714 147.976 127.222C150.132 124.108 155.881 118.359 158.756 117.401C160.153 116.935 166.245 116.526 173.129 116.366M151.33 143.99C151.49 144.31 153.007 145.38 157.798 147.105C163.786 149.261 167.859 147.823 174.087 147.105C180.315 146.386 188.46 142.553 190.137 141.595C191.813 140.637 196.365 136.565 200.437 135.127C201.97 134.586 203.492 133.78 204.799 132.971M151.33 143.99C154.607 133.456 154.911 135.276 161.63 129.774M151.33 143.99C150.052 144.07 147.833 144.997 149.174 148.063C150.451 150.982 153.117 150.983 155.163 152.193M208.103 130.601C208.993 131.687 209.626 132.435 210.258 132.492C212.893 132.732 211.935 130.576 211.935 128.18C211.935 125.785 201.635 118.119 193.011 116.922C188.578 116.306 180.41 116.197 173.129 116.366M208.103 130.601C205.282 127.161 199.871 120.323 183.669 121.234C173.368 122.431 169.296 123.389 162.11 129.378C161.946 129.514 161.787 129.646 161.63 129.774M208.103 130.601C207.468 131.146 206.27 132.061 204.799 132.971M161.63 129.774C173.242 129.323 198.131 129.33 204.799 132.971M182.471 167.466C181.513 167.147 178.495 166.316 174.087 165.55C168.577 164.592 158.756 156.926 156.84 153.812C156.383 153.069 155.803 152.572 155.163 152.193M155.163 152.193C160.992 152.573 174.518 152.806 181.992 150.698C191.334 148.063 198.76 141.355 200.437 140.637M173.129 116.366C168.817 117.989 159.379 122.623 156.121 128.18C152.049 135.127 147.737 132.253 147.258 142.074M141.269 224.319C137.966 224.015 134.203 222.583 131.687 219.927C128.717 216.792 125.634 216.157 123.063 216.614M141.269 224.319C140.95 225.969 140.215 229.892 139.832 232.383M139.832 232.383C134.083 230.084 126.257 220.912 123.063 216.614" stroke="black" stroke-width="2.39547" stroke-linecap="round"/>
<defs>
<filter id="filter0_i_37_2559" x="0" y="0" width="352" height="352" filterUnits="userSpaceOnUse" color-interpolation-filters="sRGB">
<feFlood flood-opacity="0" result="BackgroundImageFix"/>
<feBlend mode="normal" in="SourceGraphic" in2="BackgroundImageFix" result="shape"/>
<feColorMatrix in="SourceAlpha" type="matrix" values="0 0 0 0 0 0 0 0 0 0 0 0 0 0 0 0 0 0 127 0" result="hardAlpha"/>
<feOffset dy="4"/>
<feComposite in2="hardAlpha" operator="arithmetic" k2="-1" k3="1"/>
<feColorMatrix type="matrix" values="0 0 0 0 0.828235 0 0 0 0 1 0 0 0 0 0.8 0 0 0 1 0"/>
<feBlend mode="normal" in2="shape" result="effect1_innerShadow_37_2559"/>
</filter>
<filter id="filter1_i_37_2559" x="27" y="27" width="298" height="302" filterUnits="userSpaceOnUse" color-interpolation-filters="sRGB">
<feFlood flood-opacity="0" result="BackgroundImageFix"/>
<feBlend mode="normal" in="SourceGraphic" in2="BackgroundImageFix" result="shape"/>
<feColorMatrix in="SourceAlpha" type="matrix" values="0 0 0 0 0 0 0 0 0 0 0 0 0 0 0 0 0 0 127 0" result="hardAlpha"/>
<feOffset dy="4"/>
<feGaussianBlur stdDeviation="22"/>
<feComposite in2="hardAlpha" operator="arithmetic" k2="-1" k3="1"/>
<feColorMatrix type="matrix" values="0 0 0 0 0.17002 0 0 0 0 0.5 0 0 0 0 0.0458333 0 0 0 0.6 0"/>
<feBlend mode="normal" in2="shape" result="effect1_innerShadow_37_2559"/>
</filter>
</defs>
</svg>
