<svg width="20" height="20" viewBox="0 0 20 20" fill="none" xmlns="http://www.w3.org/2000/svg">
<path d="M15.8333 9.16683H10.8333V4.16683C10.8333 3.94582 10.7455 3.73385 10.5892 3.57757C10.433 3.42129 10.221 3.3335 9.99998 3.3335C9.77897 3.3335 9.567 3.42129 9.41072 3.57757C9.25444 3.73385 9.16665 3.94582 9.16665 4.16683V9.16683H4.16665C3.94563 9.16683 3.73367 9.25463 3.57739 9.41091C3.42111 9.56719 3.33331 9.77915 3.33331 10.0002C3.33331 10.2212 3.42111 10.4331 3.57739 10.5894C3.73367 10.7457 3.94563 10.8335 4.16665 10.8335H9.16665V15.8335C9.16665 16.0545 9.25444 16.2665 9.41072 16.4228C9.567 16.579 9.77897 16.6668 9.99998 16.6668C10.221 16.6668 10.433 16.579 10.5892 16.4228C10.7455 16.2665 10.8333 16.0545 10.8333 15.8335V10.8335H15.8333C16.0543 10.8335 16.2663 10.7457 16.4226 10.5894C16.5788 10.4331 16.6666 10.2212 16.6666 10.0002C16.6666 9.77915 16.5788 9.56719 16.4226 9.41091C16.2663 9.25463 16.0543 9.16683 15.8333 9.16683Z" fill="black"/>
</svg>
