<svg width="112" height="112" viewBox="0 0 112 112" fill="none" xmlns="http://www.w3.org/2000/svg">
<g clip-path="url(#clip0_108_3965)">
<path d="M112 0H0V112H112V0Z" fill="white"/>
<path d="M16.1135 12.6455H12.6451V16.1139H16.1135V12.6455Z" fill="black"/>
<path d="M19.5819 12.6455H16.1135V16.1139H19.5819V12.6455Z" fill="black"/>
<path d="M23.0503 12.6455H19.5819V16.1139H23.0503V12.6455Z" fill="black"/>
<path d="M26.5187 12.6455H23.0503V16.1139H26.5187V12.6455Z" fill="black"/>
<path d="M29.9871 12.6455H26.5187V16.1139H29.9871V12.6455Z" fill="black"/>
<path d="M33.4555 12.6455H29.9871V16.1139H33.4555V12.6455Z" fill="black"/>
<path d="M36.9238 12.6455H33.4555V16.1139H36.9238V12.6455Z" fill="black"/>
<path d="M43.8606 12.6455H40.3922V16.1139H43.8606V12.6455Z" fill="black"/>
<path d="M47.329 12.6455H43.8606V16.1139H47.329V12.6455Z" fill="black"/>
<path d="M50.7974 12.6455H47.329V16.1139H50.7974V12.6455Z" fill="black"/>
<path d="M54.2658 12.6455H50.7974V16.1139H54.2658V12.6455Z" fill="black"/>
<path d="M64.6709 12.6455H61.2026V16.1139H64.6709V12.6455Z" fill="black"/>
<path d="M71.6077 12.6455H68.1393V16.1139H71.6077V12.6455Z" fill="black"/>
<path d="M78.5445 12.6455H75.0761V16.1139H78.5445V12.6455Z" fill="black"/>
<path d="M82.0129 12.6455H78.5445V16.1139H82.0129V12.6455Z" fill="black"/>
<path d="M85.4813 12.6455H82.0129V16.1139H85.4813V12.6455Z" fill="black"/>
<path d="M88.9497 12.6455H85.4813V16.1139H88.9497V12.6455Z" fill="black"/>
<path d="M92.418 12.6455H88.9497V16.1139H92.418V12.6455Z" fill="black"/>
<path d="M95.8864 12.6455H92.418V16.1139H95.8864V12.6455Z" fill="black"/>
<path d="M99.3548 12.6455H95.8864V16.1139H99.3548V12.6455Z" fill="black"/>
<path d="M16.1135 16.1139H12.6451V19.5823H16.1135V16.1139Z" fill="black"/>
<path d="M36.9238 16.1139H33.4555L33.4555 19.5823H36.9238V16.1139Z" fill="black"/>
<path d="M47.329 16.1139H43.8606V19.5823H47.329V16.1139Z" fill="black"/>
<path d="M57.7342 16.1139H54.2658V19.5823H57.7342V16.1139Z" fill="black"/>
<path d="M61.2026 16.1139H57.7342V19.5823H61.2026V16.1139Z" fill="black"/>
<path d="M68.1393 16.1139H64.6709L64.6709 19.5823H68.1393V16.1139Z" fill="black"/>
<path d="M78.5445 16.1139H75.0761V19.5823H78.5445V16.1139Z" fill="black"/>
<path d="M99.3548 16.1139H95.8864V19.5823H99.3548V16.1139Z" fill="black"/>
<path d="M16.1135 19.5823H12.6451V23.0507H16.1135V19.5823Z" fill="black"/>
<path d="M23.0503 19.5823H19.5819V23.0507H23.0503V19.5823Z" fill="black"/>
<path d="M26.5187 19.5823H23.0503V23.0507H26.5187V19.5823Z" fill="black"/>
<path d="M29.9871 19.5823H26.5187V23.0507H29.9871V19.5823Z" fill="black"/>
<path d="M36.9238 19.5823H33.4555V23.0507H36.9238V19.5823Z" fill="black"/>
<path d="M43.8606 19.5823H40.3922V23.0507H43.8606V19.5823Z" fill="black"/>
<path d="M50.7974 19.5823H47.329V23.0507H50.7974V19.5823Z" fill="black"/>
<path d="M57.7342 19.5823H54.2658V23.0507H57.7342V19.5823Z" fill="black"/>
<path d="M61.2026 19.5823H57.7342V23.0507H61.2026V19.5823Z" fill="black"/>
<path d="M71.6077 19.5823H68.1393V23.0507H71.6077V19.5823Z" fill="black"/>
<path d="M78.5445 19.5823H75.0761V23.0507H78.5445V19.5823Z" fill="black"/>
<path d="M85.4813 19.5823H82.0129V23.0507H85.4813V19.5823Z" fill="black"/>
<path d="M88.9497 19.5823H85.4813V23.0507H88.9497V19.5823Z" fill="black"/>
<path d="M92.418 19.5823H88.9497V23.0507H92.418V19.5823Z" fill="black"/>
<path d="M99.3548 19.5823H95.8864V23.0507H99.3548V19.5823Z" fill="black"/>
<path d="M16.1135 23.0507H12.6451V26.5191H16.1135V23.0507Z" fill="black"/>
<path d="M23.0503 23.0507H19.5819V26.5191H23.0503V23.0507Z" fill="black"/>
<path d="M26.5187 23.0507H23.0503V26.5191H26.5187V23.0507Z" fill="black"/>
<path d="M29.9871 23.0507H26.5187V26.5191H29.9871V23.0507Z" fill="black"/>
<path d="M36.9238 23.0507H33.4555V26.5191H36.9238V23.0507Z" fill="black"/>
<path d="M47.329 23.0507H43.8606V26.5191H47.329V23.0507Z" fill="black"/>
<path d="M54.2658 23.0507H50.7974V26.5191H54.2658V23.0507Z" fill="black"/>
<path d="M57.7342 23.0507H54.2658V26.5191H57.7342V23.0507Z" fill="black"/>
<path d="M61.2026 23.0507H57.7342V26.5191H61.2026V23.0507Z" fill="black"/>
<path d="M64.6709 23.0507H61.2026V26.5191H64.6709V23.0507Z" fill="black"/>
<path d="M68.1393 23.0507H64.6709V26.5191H68.1393V23.0507Z" fill="black"/>
<path d="M78.5445 23.0507H75.0761V26.5191H78.5445V23.0507Z" fill="black"/>
<path d="M85.4813 23.0507H82.0129V26.5191H85.4813V23.0507Z" fill="black"/>
<path d="M88.9497 23.0507H85.4813V26.5191H88.9497V23.0507Z" fill="black"/>
<path d="M92.418 23.0507H88.9497V26.5191H92.418V23.0507Z" fill="black"/>
<path d="M99.3548 23.0507H95.8864V26.5191H99.3548V23.0507Z" fill="black"/>
<path d="M16.1135 26.5191H12.6451V29.9874H16.1135V26.5191Z" fill="black"/>
<path d="M23.0503 26.5191H19.5819V29.9874H23.0503V26.5191Z" fill="black"/>
<path d="M26.5187 26.5191H23.0503V29.9874H26.5187V26.5191Z" fill="black"/>
<path d="M29.9871 26.5191H26.5187V29.9874H29.9871V26.5191Z" fill="black"/>
<path d="M36.9238 26.5191H33.4555V29.9874H36.9238V26.5191Z" fill="black"/>
<path d="M43.8606 26.5191H40.3922V29.9874H43.8606V26.5191Z" fill="black"/>
<path d="M50.7974 26.5191H47.329V29.9874H50.7974V26.5191Z" fill="black"/>
<path d="M64.6709 26.5191H61.2026V29.9874H64.6709V26.5191Z" fill="black"/>
<path d="M68.1393 26.5191H64.6709V29.9874H68.1393V26.5191Z" fill="black"/>
<path d="M78.5445 26.5191H75.0761V29.9874H78.5445V26.5191Z" fill="black"/>
<path d="M85.4813 26.5191H82.0129V29.9874H85.4813V26.5191Z" fill="black"/>
<path d="M88.9497 26.5191H85.4813V29.9874H88.9497V26.5191Z" fill="black"/>
<path d="M92.418 26.5191H88.9497V29.9874H92.418V26.5191Z" fill="black"/>
<path d="M99.3548 26.5191H95.8864V29.9874H99.3548V26.5191Z" fill="black"/>
<path d="M16.1135 29.9874H12.6451V33.4558H16.1135V29.9874Z" fill="black"/>
<path d="M36.9238 29.9874H33.4555V33.4558H36.9238V29.9874Z" fill="black"/>
<path d="M47.329 29.9874H43.8606V33.4558H47.329V29.9874Z" fill="black"/>
<path d="M50.7974 29.9874H47.329V33.4558H50.7974V29.9874Z" fill="black"/>
<path d="M54.2658 29.9874H50.7974V33.4558H54.2658V29.9874Z" fill="black"/>
<path d="M61.2026 29.9874H57.7342V33.4558H61.2026V29.9874Z" fill="black"/>
<path d="M64.6709 29.9874H61.2026V33.4558H64.6709V29.9874Z" fill="black"/>
<path d="M78.5445 29.9874H75.0761V33.4558H78.5445V29.9874Z" fill="black"/>
<path d="M99.3548 29.9874H95.8864V33.4558H99.3548V29.9874Z" fill="black"/>
<path d="M16.1135 33.4558H12.6451V36.9242H16.1135V33.4558Z" fill="black"/>
<path d="M19.5819 33.4558L16.1135 33.4558V36.9242H19.5819V33.4558Z" fill="black"/>
<path d="M23.0503 33.4558H19.5819V36.9242H23.0503V33.4558Z" fill="black"/>
<path d="M26.5187 33.4558H23.0503V36.9242H26.5187V33.4558Z" fill="black"/>
<path d="M29.9871 33.4558H26.5187V36.9242H29.9871V33.4558Z" fill="black"/>
<path d="M33.4555 33.4558L29.9871 33.4558V36.9242H33.4555L33.4555 33.4558Z" fill="black"/>
<path d="M36.9238 33.4558H33.4555L33.4555 36.9242H36.9238V33.4558Z" fill="black"/>
<path d="M43.8606 33.4558L40.3922 33.4558V36.9242H43.8606V33.4558Z" fill="black"/>
<path d="M50.7974 33.4558H47.329V36.9242H50.7974V33.4558Z" fill="black"/>
<path d="M57.7342 33.4558H54.2658V36.9242H57.7342V33.4558Z" fill="black"/>
<path d="M64.6709 33.4558H61.2026V36.9242H64.6709V33.4558Z" fill="black"/>
<path d="M71.6077 33.4558H68.1393V36.9242H71.6077V33.4558Z" fill="black"/>
<path d="M78.5445 33.4558H75.0761V36.9242H78.5445V33.4558Z" fill="black"/>
<path d="M82.0129 33.4558L78.5445 33.4558V36.9242H82.0129V33.4558Z" fill="black"/>
<path d="M85.4813 33.4558H82.0129V36.9242H85.4813V33.4558Z" fill="black"/>
<path d="M88.9497 33.4558H85.4813V36.9242H88.9497V33.4558Z" fill="black"/>
<path d="M92.418 33.4558H88.9497V36.9242H92.418V33.4558Z" fill="black"/>
<path d="M95.8864 33.4558L92.418 33.4558V36.9242H95.8864V33.4558Z" fill="black"/>
<path d="M99.3548 33.4558H95.8864V36.9242H99.3548V33.4558Z" fill="black"/>
<path d="M47.329 36.9242H43.8606V40.3926H47.329V36.9242Z" fill="black"/>
<path d="M50.7974 36.9242H47.329V40.3926H50.7974V36.9242Z" fill="black"/>
<path d="M54.2658 36.9242H50.7974V40.3926H54.2658V36.9242Z" fill="black"/>
<path d="M64.6709 36.9242H61.2026V40.3926H64.6709V36.9242Z" fill="black"/>
<path d="M71.6077 36.9242H68.1393V40.3926H71.6077V36.9242Z" fill="black"/>
<path d="M19.5819 40.3926H16.1135V43.861H19.5819V40.3926Z" fill="black"/>
<path d="M29.9871 40.3926H26.5187V43.861H29.9871V40.3926Z" fill="black"/>
<path d="M36.9238 40.3926H33.4555V43.861H36.9238V40.3926Z" fill="black"/>
<path d="M47.329 40.3926H43.8606V43.861H47.329V40.3926Z" fill="black"/>
<path d="M57.7342 40.3926H54.2658V43.861H57.7342V40.3926Z" fill="black"/>
<path d="M61.2026 40.3926H57.7342V43.861H61.2026V40.3926Z" fill="black"/>
<path d="M64.6709 40.3926H61.2026V43.861H64.6709V40.3926Z" fill="black"/>
<path d="M68.1393 40.3926H64.6709V43.861H68.1393V40.3926Z" fill="black"/>
<path d="M75.0761 40.3926H71.6077V43.861H75.0761V40.3926Z" fill="black"/>
<path d="M85.4813 40.3926H82.0129V43.861H85.4813V40.3926Z" fill="black"/>
<path d="M92.418 40.3926H88.9497V43.861H92.418V40.3926Z" fill="black"/>
<path d="M99.3548 40.3926H95.8864V43.861H99.3548V40.3926Z" fill="black"/>
<path d="M23.0503 43.861H19.5819V47.3294H23.0503V43.861Z" fill="black"/>
<path d="M26.5187 43.861H23.0503V47.3294H26.5187V43.861Z" fill="black"/>
<path d="M33.4555 43.861H29.9871V47.3294H33.4555L33.4555 43.861Z" fill="black"/>
<path d="M43.8606 43.861H40.3922V47.3294H43.8606V43.861Z" fill="black"/>
<path d="M57.7342 43.861H54.2658V47.3294H57.7342V43.861Z" fill="black"/>
<path d="M61.2026 43.861H57.7342V47.3294H61.2026V43.861Z" fill="black"/>
<path d="M71.6077 43.861H68.1393V47.3294H71.6077V43.861Z" fill="black"/>
<path d="M78.5445 43.861H75.0761V47.3294H78.5445V43.861Z" fill="black"/>
<path d="M85.4813 43.861H82.0129V47.3294H85.4813V43.861Z" fill="black"/>
<path d="M95.8864 43.861H92.418V47.3294H95.8864V43.861Z" fill="black"/>
<path d="M99.3548 43.861H95.8864V47.3294H99.3548V43.861Z" fill="black"/>
<path d="M26.5187 47.3294H23.0503V50.7978H26.5187V47.3294Z" fill="black"/>
<path d="M29.9871 47.3294H26.5187V50.7978H29.9871V47.3294Z" fill="black"/>
<path d="M33.4555 47.3294H29.9871V50.7978H33.4555V47.3294Z" fill="black"/>
<path d="M36.9238 47.3294H33.4555V50.7978H36.9238V47.3294Z" fill="black"/>
<path d="M40.3922 47.3294H36.9238V50.7978H40.3922V47.3294Z" fill="black"/>
<path d="M47.329 47.3294H43.8606V50.7978H47.329V47.3294Z" fill="black"/>
<path d="M64.6709 47.3294H61.2026V50.7978H64.6709V47.3294Z" fill="black"/>
<path d="M78.5445 47.3294H75.0761V50.7978H78.5445V47.3294Z" fill="black"/>
<path d="M88.9497 47.3294H85.4813V50.7978H88.9497V47.3294Z" fill="black"/>
<path d="M95.8864 47.3294H92.418V50.7978H95.8864V47.3294Z" fill="black"/>
<path d="M99.3548 47.3294H95.8864V50.7978H99.3548V47.3294Z" fill="black"/>
<path d="M16.1135 50.7978H12.6451V54.2661H16.1135V50.7978Z" fill="black"/>
<path d="M19.5819 50.7978H16.1135V54.2661H19.5819V50.7978Z" fill="black"/>
<path d="M23.0503 50.7978H19.5819V54.2661H23.0503V50.7978Z" fill="black"/>
<path d="M26.5187 50.7978H23.0503V54.2661H26.5187V50.7978Z" fill="black"/>
<path d="M40.3922 50.7978H36.9238V54.2661H40.3922V50.7978Z" fill="black"/>
<path d="M43.8606 50.7978H40.3922V54.2661H43.8606V50.7978Z" fill="black"/>
<path d="M54.2658 50.7978H50.7974V54.2661H54.2658V50.7978Z" fill="black"/>
<path d="M61.2026 50.7978H57.7342V54.2661H61.2026V50.7978Z" fill="black"/>
<path d="M68.1393 50.7978H64.6709L64.6709 54.2661H68.1393V50.7978Z" fill="black"/>
<path d="M75.0761 50.7978H71.6077V54.2661H75.0761V50.7978Z" fill="black"/>
<path d="M78.5445 50.7978H75.0761V54.2661H78.5445V50.7978Z" fill="black"/>
<path d="M85.4813 50.7978H82.0129V54.2661H85.4813V50.7978Z" fill="black"/>
<path d="M88.9497 50.7978H85.4813V54.2661H88.9497V50.7978Z" fill="black"/>
<path d="M95.8864 50.7978H92.418V54.2661H95.8864V50.7978Z" fill="black"/>
<path d="M19.5819 54.2661H16.1135V57.7345H19.5819V54.2661Z" fill="black"/>
<path d="M23.0503 54.2661H19.5819V57.7345H23.0503V54.2661Z" fill="black"/>
<path d="M33.4555 54.2661H29.9871V57.7345H33.4555V54.2661Z" fill="black"/>
<path d="M36.9238 54.2661H33.4555V57.7345H36.9238V54.2661Z" fill="black"/>
<path d="M43.8606 54.2661H40.3922V57.7345H43.8606V54.2661Z" fill="black"/>
<path d="M47.329 54.2661H43.8606V57.7345H47.329V54.2661Z" fill="black"/>
<path d="M54.2658 54.2661H50.7974V57.7345H54.2658V54.2661Z" fill="black"/>
<path d="M71.6077 54.2661H68.1393V57.7345H71.6077V54.2661Z" fill="black"/>
<path d="M75.0761 54.2661H71.6077V57.7345H75.0761V54.2661Z" fill="black"/>
<path d="M78.5445 54.2661H75.0761V57.7345H78.5445V54.2661Z" fill="black"/>
<path d="M82.0129 54.2661H78.5445V57.7345H82.0129V54.2661Z" fill="black"/>
<path d="M99.3548 54.2661H95.8864V57.7345H99.3548V54.2661Z" fill="black"/>
<path d="M19.5819 57.7345H16.1135V61.2029H19.5819V57.7345Z" fill="black"/>
<path d="M40.3922 57.7345H36.9238V61.2029H40.3922V57.7345Z" fill="black"/>
<path d="M43.8606 57.7345H40.3922V61.2029H43.8606V57.7345Z" fill="black"/>
<path d="M50.7974 57.7345H47.329V61.2029H50.7974V57.7345Z" fill="black"/>
<path d="M54.2658 57.7345H50.7974V61.2029H54.2658V57.7345Z" fill="black"/>
<path d="M64.6709 57.7345H61.2026V61.2029H64.6709V57.7345Z" fill="black"/>
<path d="M75.0761 57.7345H71.6077V61.2029H75.0761V57.7345Z" fill="black"/>
<path d="M82.0129 57.7345H78.5445V61.2029H82.0129V57.7345Z" fill="black"/>
<path d="M92.418 57.7345H88.9497V61.2029H92.418V57.7345Z" fill="black"/>
<path d="M16.1135 61.2029H12.6451V64.6713H16.1135V61.2029Z" fill="black"/>
<path d="M19.5819 61.2029H16.1135V64.6713H19.5819V61.2029Z" fill="black"/>
<path d="M26.5187 61.2029H23.0503V64.6713H26.5187V61.2029Z" fill="black"/>
<path d="M36.9238 61.2029H33.4555V64.6713H36.9238V61.2029Z" fill="black"/>
<path d="M40.3922 61.2029H36.9238V64.6713H40.3922V61.2029Z" fill="black"/>
<path d="M43.8606 61.2029H40.3922V64.6713H43.8606V61.2029Z" fill="black"/>
<path d="M54.2658 61.2029H50.7974V64.6713H54.2658V61.2029Z" fill="black"/>
<path d="M57.7342 61.2029H54.2658V64.6713H57.7342V61.2029Z" fill="black"/>
<path d="M78.5445 61.2029H75.0761V64.6713H78.5445V61.2029Z" fill="black"/>
<path d="M82.0129 61.2029H78.5445V64.6713H82.0129V61.2029Z" fill="black"/>
<path d="M85.4813 61.2029H82.0129V64.6713H85.4813V61.2029Z" fill="black"/>
<path d="M88.9497 61.2029H85.4813V64.6713H88.9497V61.2029Z" fill="black"/>
<path d="M16.1135 64.6713H12.6451V68.1397H16.1135V64.6713Z" fill="black"/>
<path d="M19.5819 64.6713H16.1135V68.1397H19.5819V64.6713Z" fill="black"/>
<path d="M23.0503 64.6713H19.5819V68.1397H23.0503V64.6713Z" fill="black"/>
<path d="M26.5187 64.6713H23.0503V68.1397H26.5187V64.6713Z" fill="black"/>
<path d="M29.9871 64.6713L26.5187 64.6713V68.1397H29.9871V64.6713Z" fill="black"/>
<path d="M33.4555 64.6713L29.9871 64.6713V68.1397H33.4555L33.4555 64.6713Z" fill="black"/>
<path d="M40.3922 64.6713H36.9238V68.1397H40.3922V64.6713Z" fill="black"/>
<path d="M54.2658 64.6713H50.7974V68.1397H54.2658V64.6713Z" fill="black"/>
<path d="M71.6077 64.6713H68.1393V68.1397H71.6077V64.6713Z" fill="black"/>
<path d="M75.0761 64.6713L71.6077 64.6713V68.1397H75.0761V64.6713Z" fill="black"/>
<path d="M78.5445 64.6713H75.0761V68.1397H78.5445V64.6713Z" fill="black"/>
<path d="M92.418 64.6713L88.9497 64.6713V68.1397H92.418V64.6713Z" fill="black"/>
<path d="M95.8864 64.6713H92.418V68.1397H95.8864V64.6713Z" fill="black"/>
<path d="M99.3548 64.6713H95.8864V68.1397H99.3548V64.6713Z" fill="black"/>
<path d="M23.0503 68.1397H19.5819V71.6081H23.0503V68.1397Z" fill="black"/>
<path d="M26.5187 68.1397H23.0503V71.6081H26.5187V68.1397Z" fill="black"/>
<path d="M33.4555 68.1397H29.9871V71.6081H33.4555V68.1397Z" fill="black"/>
<path d="M36.9238 68.1397H33.4555V71.6081H36.9238V68.1397Z" fill="black"/>
<path d="M40.3922 68.1397H36.9238V71.6081H40.3922V68.1397Z" fill="black"/>
<path d="M47.329 68.1397H43.8606V71.6081H47.329V68.1397Z" fill="black"/>
<path d="M50.7974 68.1397H47.329V71.6081H50.7974V68.1397Z" fill="black"/>
<path d="M54.2658 68.1397H50.7974V71.6081H54.2658V68.1397Z" fill="black"/>
<path d="M61.2026 68.1397H57.7342V71.6081H61.2026V68.1397Z" fill="black"/>
<path d="M64.6709 68.1397H61.2026V71.6081H64.6709V68.1397Z" fill="black"/>
<path d="M68.1393 68.1397H64.6709V71.6081H68.1393V68.1397Z" fill="black"/>
<path d="M71.6077 68.1397H68.1393V71.6081H71.6077V68.1397Z" fill="black"/>
<path d="M75.0761 68.1397H71.6077V71.6081H75.0761V68.1397Z" fill="black"/>
<path d="M78.5445 68.1397H75.0761V71.6081H78.5445V68.1397Z" fill="black"/>
<path d="M82.0129 68.1397H78.5445V71.6081H82.0129V68.1397Z" fill="black"/>
<path d="M85.4813 68.1397H82.0129V71.6081H85.4813V68.1397Z" fill="black"/>
<path d="M92.418 68.1397H88.9497V71.6081H92.418V68.1397Z" fill="black"/>
<path d="M95.8864 68.1397H92.418V71.6081H95.8864V68.1397Z" fill="black"/>
<path d="M99.3548 68.1397H95.8864V71.6081H99.3548V68.1397Z" fill="black"/>
<path d="M47.329 71.6081H43.8606V75.0765H47.329V71.6081Z" fill="black"/>
<path d="M61.2026 71.6081H57.7342V75.0765H61.2026V71.6081Z" fill="black"/>
<path d="M64.6709 71.6081H61.2026V75.0765H64.6709V71.6081Z" fill="black"/>
<path d="M68.1393 71.6081H64.6709V75.0765H68.1393V71.6081Z" fill="black"/>
<path d="M71.6077 71.6081H68.1393V75.0765H71.6077V71.6081Z" fill="black"/>
<path d="M85.4813 71.6081H82.0129V75.0765H85.4813V71.6081Z" fill="black"/>
<path d="M92.418 71.6081H88.9497V75.0765H92.418V71.6081Z" fill="black"/>
<path d="M16.1135 75.0765H12.6451V78.5449H16.1135V75.0765Z" fill="black"/>
<path d="M19.5819 75.0765H16.1135V78.5449H19.5819V75.0765Z" fill="black"/>
<path d="M23.0503 75.0765H19.5819V78.5449H23.0503V75.0765Z" fill="black"/>
<path d="M26.5187 75.0765H23.0503V78.5449H26.5187V75.0765Z" fill="black"/>
<path d="M29.9871 75.0765H26.5187V78.5449H29.9871V75.0765Z" fill="black"/>
<path d="M33.4555 75.0765H29.9871V78.5449H33.4555V75.0765Z" fill="black"/>
<path d="M36.9238 75.0765H33.4555V78.5449H36.9238V75.0765Z" fill="black"/>
<path d="M47.329 75.0765H43.8606V78.5449H47.329V75.0765Z" fill="black"/>
<path d="M50.7974 75.0765H47.329V78.5449H50.7974V75.0765Z" fill="black"/>
<path d="M57.7342 75.0765H54.2658V78.5449H57.7342V75.0765Z" fill="black"/>
<path d="M61.2026 75.0765H57.7342V78.5449H61.2026V75.0765Z" fill="black"/>
<path d="M68.1393 75.0765H64.6709L64.6709 78.5449H68.1393V75.0765Z" fill="black"/>
<path d="M71.6077 75.0765H68.1393V78.5449H71.6077V75.0765Z" fill="black"/>
<path d="M78.5445 75.0765H75.0761V78.5449H78.5445V75.0765Z" fill="black"/>
<path d="M85.4813 75.0765H82.0129V78.5449H85.4813V75.0765Z" fill="black"/>
<path d="M16.1135 78.5449H12.6451V82.0132H16.1135V78.5449Z" fill="black"/>
<path d="M36.9238 78.5449H33.4555L33.4555 82.0132H36.9238V78.5449Z" fill="black"/>
<path d="M54.2658 78.5449H50.7974V82.0132H54.2658V78.5449Z" fill="black"/>
<path d="M57.7342 78.5449H54.2658V82.0132H57.7342V78.5449Z" fill="black"/>
<path d="M61.2026 78.5449H57.7342V82.0132H61.2026V78.5449Z" fill="black"/>
<path d="M64.6709 78.5449H61.2026V82.0132H64.6709L64.6709 78.5449Z" fill="black"/>
<path d="M71.6077 78.5449H68.1393V82.0132H71.6077V78.5449Z" fill="black"/>
<path d="M85.4813 78.5449H82.0129V82.0132H85.4813V78.5449Z" fill="black"/>
<path d="M88.9497 78.5449H85.4813V82.0132H88.9497V78.5449Z" fill="black"/>
<path d="M99.3548 78.5449H95.8864V82.0132H99.3548V78.5449Z" fill="black"/>
<path d="M16.1135 82.0132H12.6451V85.4816H16.1135V82.0132Z" fill="black"/>
<path d="M23.0503 82.0132H19.5819V85.4816H23.0503V82.0132Z" fill="black"/>
<path d="M26.5187 82.0132H23.0503V85.4816H26.5187V82.0132Z" fill="black"/>
<path d="M29.9871 82.0132H26.5187V85.4816H29.9871V82.0132Z" fill="black"/>
<path d="M36.9238 82.0132H33.4555V85.4816H36.9238V82.0132Z" fill="black"/>
<path d="M43.8606 82.0132H40.3922V85.4816H43.8606V82.0132Z" fill="black"/>
<path d="M68.1393 82.0132H64.6709L64.6709 85.4816H68.1393V82.0132Z" fill="black"/>
<path d="M71.6077 82.0132H68.1393V85.4816H71.6077V82.0132Z" fill="black"/>
<path d="M75.0761 82.0132H71.6077V85.4816H75.0761V82.0132Z" fill="black"/>
<path d="M78.5445 82.0132H75.0761V85.4816H78.5445V82.0132Z" fill="black"/>
<path d="M82.0129 82.0132H78.5445V85.4816H82.0129V82.0132Z" fill="black"/>
<path d="M85.4813 82.0132H82.0129V85.4816H85.4813V82.0132Z" fill="black"/>
<path d="M88.9497 82.0132H85.4813V85.4816H88.9497V82.0132Z" fill="black"/>
<path d="M92.418 82.0132H88.9497V85.4816H92.418V82.0132Z" fill="black"/>
<path d="M95.8864 82.0132H92.418V85.4816H95.8864V82.0132Z" fill="black"/>
<path d="M16.1135 85.4816H12.6451V88.95H16.1135V85.4816Z" fill="black"/>
<path d="M23.0503 85.4816H19.5819V88.95H23.0503V85.4816Z" fill="black"/>
<path d="M26.5187 85.4816H23.0503V88.95H26.5187V85.4816Z" fill="black"/>
<path d="M29.9871 85.4816H26.5187V88.95H29.9871V85.4816Z" fill="black"/>
<path d="M36.9238 85.4816H33.4555V88.95H36.9238V85.4816Z" fill="black"/>
<path d="M57.7342 85.4816H54.2658V88.95H57.7342V85.4816Z" fill="black"/>
<path d="M61.2026 85.4816H57.7342V88.95H61.2026V85.4816Z" fill="black"/>
<path d="M71.6077 85.4816H68.1393V88.95H71.6077V85.4816Z" fill="black"/>
<path d="M75.0761 85.4816H71.6077V88.95H75.0761V85.4816Z" fill="black"/>
<path d="M78.5445 85.4816H75.0761V88.95H78.5445V85.4816Z" fill="black"/>
<path d="M82.0129 85.4816H78.5445V88.95H82.0129V85.4816Z" fill="black"/>
<path d="M85.4813 85.4816H82.0129V88.95H85.4813V85.4816Z" fill="black"/>
<path d="M88.9497 85.4816H85.4813V88.95H88.9497V85.4816Z" fill="black"/>
<path d="M95.8864 85.4816H92.418V88.95H95.8864V85.4816Z" fill="black"/>
<path d="M16.1135 88.95H12.6451V92.4184H16.1135V88.95Z" fill="black"/>
<path d="M23.0503 88.95H19.5819V92.4184H23.0503V88.95Z" fill="black"/>
<path d="M26.5187 88.95H23.0503V92.4184H26.5187V88.95Z" fill="black"/>
<path d="M29.9871 88.95H26.5187V92.4184H29.9871V88.95Z" fill="black"/>
<path d="M36.9238 88.95H33.4555V92.4184H36.9238V88.95Z" fill="black"/>
<path d="M50.7974 88.95H47.329V92.4184H50.7974V88.95Z" fill="black"/>
<path d="M64.6709 88.95H61.2026V92.4184H64.6709V88.95Z" fill="black"/>
<path d="M88.9497 88.95H85.4813V92.4184H88.9497V88.95Z" fill="black"/>
<path d="M16.1135 92.4184H12.6451V95.8868H16.1135V92.4184Z" fill="black"/>
<path d="M36.9238 92.4184H33.4555V95.8868H36.9238V92.4184Z" fill="black"/>
<path d="M43.8606 92.4184H40.3922V95.8868H43.8606V92.4184Z" fill="black"/>
<path d="M50.7974 92.4184H47.329V95.8868H50.7974V92.4184Z" fill="black"/>
<path d="M54.2658 92.4184H50.7974V95.8868H54.2658V92.4184Z" fill="black"/>
<path d="M57.7342 92.4184H54.2658V95.8868H57.7342V92.4184Z" fill="black"/>
<path d="M64.6709 92.4184H61.2026V95.8868H64.6709V92.4184Z" fill="black"/>
<path d="M68.1393 92.4184H64.6709V95.8868H68.1393V92.4184Z" fill="black"/>
<path d="M75.0761 92.4184H71.6077V95.8868H75.0761V92.4184Z" fill="black"/>
<path d="M78.5445 92.4184H75.0761V95.8868H78.5445V92.4184Z" fill="black"/>
<path d="M82.0129 92.4184H78.5445V95.8868H82.0129V92.4184Z" fill="black"/>
<path d="M85.4813 92.4184H82.0129V95.8868H85.4813V92.4184Z" fill="black"/>
<path d="M95.8864 92.4184H92.418V95.8868H95.8864V92.4184Z" fill="black"/>
<path d="M99.3548 92.4184H95.8864V95.8868H99.3548V92.4184Z" fill="black"/>
<path d="M16.1135 95.8868H12.6451V99.3552H16.1135V95.8868Z" fill="black"/>
<path d="M19.5819 95.8868H16.1135V99.3552H19.5819V95.8868Z" fill="black"/>
<path d="M23.0503 95.8868H19.5819V99.3552H23.0503V95.8868Z" fill="black"/>
<path d="M26.5187 95.8868H23.0503V99.3552H26.5187V95.8868Z" fill="black"/>
<path d="M29.9871 95.8868H26.5187V99.3552H29.9871V95.8868Z" fill="black"/>
<path d="M33.4555 95.8868H29.9871V99.3552H33.4555L33.4555 95.8868Z" fill="black"/>
<path d="M36.9238 95.8868H33.4555L33.4555 99.3552H36.9238V95.8868Z" fill="black"/>
<path d="M47.329 95.8868H43.8606V99.3552H47.329V95.8868Z" fill="black"/>
<path d="M50.7974 95.8868H47.329V99.3552H50.7974V95.8868Z" fill="black"/>
<path d="M57.7342 95.8868H54.2658V99.3552H57.7342V95.8868Z" fill="black"/>
<path d="M61.2026 95.8868H57.7342V99.3552H61.2026V95.8868Z" fill="black"/>
<path d="M64.6709 95.8868H61.2026V99.3552H64.6709V95.8868Z" fill="black"/>
<path d="M75.0761 95.8868H71.6077V99.3552H75.0761V95.8868Z" fill="black"/>
<path d="M78.5445 95.8868H75.0761V99.3552H78.5445V95.8868Z" fill="black"/>
<path d="M85.4813 95.8868H82.0129V99.3552H85.4813V95.8868Z" fill="black"/>
<path d="M92.418 95.8868H88.9497V99.3552H92.418V95.8868Z" fill="black"/>
<path d="M99.3548 95.8868H95.8864V99.3552H99.3548V95.8868Z" fill="black"/>
</g>
<defs>
<clipPath id="clip0_108_3965">
<rect width="112" height="112" rx="8" fill="white"/>
</clipPath>
</defs>
</svg>
