<svg width="20" height="20" viewBox="0 0 20 20" fill="none" xmlns="http://www.w3.org/2000/svg">
<path d="M8.33333 14.9998C8.55435 14.9998 8.76631 14.912 8.92259 14.7558C9.07887 14.5995 9.16667 14.3875 9.16667 14.1665V9.1665C9.16667 8.94549 9.07887 8.73353 8.92259 8.57725C8.76631 8.42097 8.55435 8.33317 8.33333 8.33317C8.11232 8.33317 7.90036 8.42097 7.74408 8.57725C7.5878 8.73353 7.5 8.94549 7.5 9.1665V14.1665C7.5 14.3875 7.5878 14.5995 7.74408 14.7558C7.90036 14.912 8.11232 14.9998 8.33333 14.9998ZM16.6667 4.99984H13.3333V4.1665C13.3333 3.50346 13.0699 2.86758 12.6011 2.39874C12.1323 1.9299 11.4964 1.6665 10.8333 1.6665H9.16667C8.50363 1.6665 7.86774 1.9299 7.3989 2.39874C6.93006 2.86758 6.66667 3.50346 6.66667 4.1665V4.99984H3.33333C3.11232 4.99984 2.90036 5.08764 2.74408 5.24392C2.5878 5.4002 2.5 5.61216 2.5 5.83317C2.5 6.05418 2.5878 6.26615 2.74408 6.42243C2.90036 6.57871 3.11232 6.6665 3.33333 6.6665H4.16667V15.8332C4.16667 16.4962 4.43006 17.1321 4.8989 17.6009C5.36774 18.0698 6.00363 18.3332 6.66667 18.3332H13.3333C13.9964 18.3332 14.6323 18.0698 15.1011 17.6009C15.5699 17.1321 15.8333 16.4962 15.8333 15.8332V6.6665H16.6667C16.8877 6.6665 17.0996 6.57871 17.2559 6.42243C17.4122 6.26615 17.5 6.05418 17.5 5.83317C17.5 5.61216 17.4122 5.4002 17.2559 5.24392C17.0996 5.08764 16.8877 4.99984 16.6667 4.99984ZM8.33333 4.1665C8.33333 3.94549 8.42113 3.73353 8.57741 3.57725C8.73369 3.42097 8.94565 3.33317 9.16667 3.33317H10.8333C11.0543 3.33317 11.2663 3.42097 11.4226 3.57725C11.5789 3.73353 11.6667 3.94549 11.6667 4.1665V4.99984H8.33333V4.1665ZM14.1667 15.8332C14.1667 16.0542 14.0789 16.2661 13.9226 16.4224C13.7663 16.5787 13.5543 16.6665 13.3333 16.6665H6.66667C6.44565 16.6665 6.23369 16.5787 6.07741 16.4224C5.92113 16.2661 5.83333 16.0542 5.83333 15.8332V6.6665H14.1667V15.8332ZM11.6667 14.9998C11.8877 14.9998 12.0996 14.912 12.2559 14.7558C12.4122 14.5995 12.5 14.3875 12.5 14.1665V9.1665C12.5 8.94549 12.4122 8.73353 12.2559 8.57725C12.0996 8.42097 11.8877 8.33317 11.6667 8.33317C11.4457 8.33317 11.2337 8.42097 11.0774 8.57725C10.9211 8.73353 10.8333 8.94549 10.8333 9.1665V14.1665C10.8333 14.3875 10.9211 14.5995 11.0774 14.7558C11.2337 14.912 11.4457 14.9998 11.6667 14.9998Z" fill="#081C00"/>
</svg>
